# xmcd
#
# Track frame offsets:
#	150
#	15688
#	35755
#	52799
#	65972
#	81202
#	106060
#	122671
#	136897
#	153138
#	167110
#	184370
#	195946
#	215302
#	228481
#
# Disc length: 3245 seconds
#
# Revision: 1
# Processed by: cddbd v1.5.2PL0 Copyright (c) Steve Scherf et al.
# Submitted via: audiograbber 1.83.01
#
DISCID=c50cab0f
DTITLE=Victor e Leo - Ao Vivo Em Uberlândia
DYEAR=2007
DGENRE=Sertanejo
TTITLE0=Victor e Leo - Sinto Falta De Você
TTITLE1=Victor e Leo - Eu E Você
TTITLE2=Victor e Leo - Fada
TTITLE3=Victor e Leo - Telefone Mudo
TTITLE4=Victor e Leo - Jogo Da Vida
TTITLE5=Victor e Leo - 60 Dias Apaixonado - Fazenda São Francisco(Maior Proeza)
TTITLE6=Victor e Leo - O Granfino E O Caipira
TTITLE7=Victor e Leo - Vida Boa
TTITLE8=Victor e Leo - Amigo Apaixonado
TTITLE9=Victor e Leo - Arapuca
TTITLE10=Victor e Leo - Lembranças de Amor
TTITLE11=Victor e Leo - Chuva De Bruxaria
TTITLE12=Victor e Leo - Meu Eu Em Você
TTITLE13=Victor e Leo - O Cuidador Do Fogo
TTITLE14=Victor e Leo - Milonga Para As Missões ( Instrumental )
EXTD=
EXTT0=
EXTT1=
EXTT2=
EXTT3=
EXTT4=
EXTT5=
EXTT6=
EXTT7=
EXTT8=
EXTT9=
EXTT10=
EXTT11=
EXTT12=
EXTT13=
EXTT14=
PLAYORDER=
